<?xml version="1.0" ?><svg height="48" id="黑白" viewBox="0 0 48 48" width="48" xmlns="http://www.w3.org/2000/svg"><title/><path d="M38.51,18.81l0-.06-4-7a1.22,1.22,0,0,0-1.07-.62H14.57a1.23,1.23,0,0,0-1.06.62l-4,7a1.23,1.23,0,0,0,0,1.22,1.08,1.08,0,0,0,.18.24L23.06,36.42a1.21,1.21,0,0,0,.94.44,1.22,1.22,0,0,0,.94-.44L38.3,20.26a1.29,1.29,0,0,0,.3-.52A1.26,1.26,0,0,0,38.51,18.81ZM26.08,13.59l1.55,4.25H20.36l1.56-4.25Zm1.4,6.69L24,32,20.52,20.28Zm-9.51,0,2.85,9.59-7.93-9.59Zm12.06,0H35.1l-7.92,9.59Zm5.11-2.44h-4.9l-1.56-4.25h4ZM15.28,13.59h4l-1.56,4.25H12.87Z"/></svg>