<?xml version="1.0" ?>
<svg height="64" id="svg8" version="1.1" viewBox="0 0 16.933333 16.933334" width="64" xmlns="http://www.w3.org/2000/svg" xmlns:cc="http://creativecommons.org/ns#" xmlns:dc="http://purl.org/dc/elements/1.1/" xmlns:inkscape="http://www.inkscape.org/namespaces/inkscape" xmlns:rdf="http://www.w3.org/1999/02/22-rdf-syntax-ns#" xmlns:sodipodi="http://sodipodi.sourceforge.net/DTD/sodipodi-0.dtd" xmlns:svg="http://www.w3.org/2000/svg">
    <defs id="defs2"/>
    <g id="layer1">
        <path d="m 31.996094,0 c -0.582708,0.01096032 -1,0.4419714 -1,0.99609375 V 2.9960938 c 0,0.6664387 0.500141,1.0011031 1,1.0019531 0.499856,-8.5e-4 1,-0.3355311 1,-1.0019531 V 0.99609375 c 0,-0.55412235 -0.417332,-0.98524304 -1,-0.99609375 z m -5.408203,1.5839844 c -0.904052,-0.0068 -1.340853,1.0899654 -0.716797,1.7089844 L 27.289062,4.703125 C 28.275775,5.6206378 29.61936,4.2381615 28.707031,3.2929688 L 27.289062,1.875 C 27.100837,1.6814564 26.857871,1.5840222 26.587891,1.5839844 Z m 10.816406,0 C 37.134439,1.5839995 36.89139,1.6814564 36.703125,1.875 l -1.417969,1.4179688 c -0.912364,0.9451931 0.431256,2.3276766 1.417969,1.4101562 l 1.417969,-1.4101562 c 0.62409,-0.619019 0.187121,-1.7159725 -0.716797,-1.7089844 z M 25.308594,8.0019531 c -0.678217,0 -1.273875,0.3498973 -1.638672,0.8496094 l -4.355469,5.9707035 c -0.473287,0.647966 -0.40151,1.502173 0.08203,2.082031 2.990691,3.583733 6.057119,7.083914 9.109375,10.587891 -0.3214,0.59403 -0.509765,1.2977 -0.509765,2.072265 v 6 c 0,3.578451 -0.892576,6.920092 -0.988282,11.619141 l -0.8125,-0.16211 c -0.432253,-0.08625 -0.87036,0.119092 -1.078124,0.507813 l -8.001954,15 C 16.762657,63.193473 17.240203,63.996307 17.992188,64 h 29.003906 c 0.409221,8.31e-4 0.777206,-0.249185 0.929687,-0.628906 l 4.003907,-10.001953 c 0.231269,-0.582089 -0.125404,-1.231782 -0.740235,-1.351563 l -0.417969,-0.08398 c 0.494725,-0.534202 1.141602,-1.173528 1.875,-1.857422 1.384335,-1.290913 3.083888,-2.792175 4.738282,-4.384766 1.654397,-1.592598 3.267792,-3.277027 4.496093,-4.966797 C 63.10766,39.036907 64,37.335331 64,35.568359 c 0.0223,-2.21823 -0.585847,-6.305424 -1.189453,-9.96875 -0.604044,-3.666 -1.21875,-6.828125 -1.21875,-6.828125 -0.329348,-1.71571 -1.51533,-2.842925 -2.818359,-3.128906 -0.550677,-0.120858 -1.115278,-0.111081 -1.650391,0.01758 l -0.07813,-1.08789 c -0.370999,-2.178821 -2.035508,-3.118286 -3.542969,-3.003907 -1.507464,0.11438 -2.953462,1.327603 -3.035156,3.107422 L 50.158203,21.664062 47.75,16.84375 c -0.472551,-0.869456 -1.206689,-1.434038 -2.015625,-1.691406 -0.308409,-0.09812 -0.62813,-0.150638 -0.947266,-0.16211 C 43.285571,12.864768 41.687338,10.711609 40.144531,8.5917969 39.966198,8.3327386 39.342243,8.0019531 38.677734,8.0019531 Z m 5.107422,1.9999999 h 3.160156 L 35.572266,15 h -7.158204 z m 23.296875,3.554688 c 0.510735,0 1.141968,0.230449 1.353515,1.318359 l 0.929688,13.759766 c 0.03742,0.553125 0.51932,0.969955 1.072265,0.929687 0.553164,-0.03727 0.969959,-0.517395 0.929688,-1.070312 L 57.263672,17.728516 c 0.334639,-0.155233 0.726069,-0.208555 1.080078,-0.13086 0.570864,0.125288 1.078386,0.473556 1.285156,1.550782 0,0 0.604146,3.142088 1.203125,6.777343 0.598976,3.635256 1.184789,7.836354 1.166016,9.63086 0,1.052675 -0.626754,2.470378 -1.734375,3.99414 -1.107632,1.523755 -2.653187,3.139275 -4.267578,4.69336 -1.614384,1.554085 -3.294769,3.052326 -4.708985,4.371093 -1.1561,1.078069 -2.129377,1.993902 -2.777343,2.867188 L 28.994141,47.580078 c 0.05433,-4.649446 1.001953,-8.015061 1.001953,-12.015625 v -6 c 0,-1.217316 0.708035,-1.837132 1.30664,-1.970703 0.546633,-0.121977 1.314188,0.05982 1.753907,1.308594 1.401145,3.656858 2.761494,7.292523 3.988281,10.972656 0.173594,0.527391 0.74539,0.812332 1.271484,0.634766 0.520596,-0.176769 0.800354,-0.740023 0.626953,-1.261719 -0.100422,-0.301304 -0.204593,-0.601796 -0.30664,-0.902344 0.389661,-0.219212 2.239143,-1.282279 4.085937,-2.759765 1.03276,-0.82624 2.045655,-1.760809 2.775391,-2.796876 0.726841,-1.031961 1.228641,-2.272672 0.8125,-3.53125 l -3.197266,-9.955078 c -0.360075,-1.343804 0.347528,-1.975045 0.894531,-2.191406 0.641475,-0.253738 1.530768,-0.140361 1.976563,0.679688 l 7.119141,14.224609 c 0.0094,0.0175 0.01909,0.03383 0.0293,0.05078 0.636108,1.101646 0.871094,2.634766 0.871094,2.634766 0.07427,0.548996 0.58021,0.932172 1.128906,0.855469 0.549032,-0.07428 0.934128,-0.580247 0.857422,-1.128907 0,0 -0.221255,-1.789917 -1.130859,-3.365234 l -2.857422,-5.714844 0.458985,-10.580078 c 0.03704,-0.743384 0.588045,-1.161916 1.251953,-1.210937 z M 28.458984,17 h 7.06836 l -3.076172,8.708984 c -0.314943,-0.09522 -0.637987,-0.142129 -0.958984,-0.138672 z m 12.988282,3.636719 2.96289,9.238281 c 0.139011,0.408189 0.003,0.988511 -0.542968,1.763672 -0.545973,0.775161 -1.444272,1.631953 -2.392579,2.390625 -1.358093,1.086514 -2.790434,1.971073 -3.501953,2.390625 -0.96631,-2.74703 -1.988755,-5.468032 -3.046875,-8.216797 2.166223,-2.539333 4.355687,-5.03826 6.521485,-7.566406 z M 7.9902344,21.998047 c -0.4521664,-8.28e-4 -0.8483809,0.301922 -0.9667969,0.738281 -0.843086,3.088534 -2.884555,5.425097 -5.3730469,6.326172 -0.88259849,0.317102 -0.88259849,1.565714 0,1.882812 2.4894708,0.897683 4.5349384,3.228723 5.3808594,6.316407 0.2719824,0.975207 1.6537834,0.975207 1.9257812,0 0.843086,-3.088536 2.8865078,-5.423145 5.3749998,-6.324219 0.882594,-0.317102 0.882594,-1.565715 0,-1.882812 C 11.842559,28.157005 9.7970929,25.82401 8.9511719,22.736328 8.8334781,22.30261 8.4396519,22.000543 7.9902344,21.998047 Z M 17.992188,36 c -0.445269,6.28e-4 -0.835803,0.294794 -0.958985,0.722656 -0.53238,1.880658 -1.815165,3.290799 -3.365234,3.832032 -0.896536,0.310941 -0.896536,1.577741 0,1.888671 1.550667,0.53918 2.831067,1.951906 3.365234,3.832032 0.275804,0.974177 1.659582,0.968749 1.927735,-0.0078 0.532371,-1.880655 1.815174,-3.290791 3.365234,-3.832031 0.882597,-0.317102 0.882597,-1.563761 0,-1.880859 C 20.775516,40.015957 19.487287,38.602766 18.953125,36.722656 18.829944,36.294779 18.437456,36.000639 17.992188,36 Z M 5.4960938,42.001953 c -0.4543371,6.4e-5 -0.8511819,0.304858 -0.9667969,0.744141 -0.619736,2.378472 -2.1228881,4.149733 -3.89062502,4.820312 -0.8548069,0.331616 -0.8497115,1.542349 0.007813,1.867188 1.76834552,0.668024 3.26100542,2.436665 3.88281252,4.814453 0.2620422,0.99335 1.67157,0.99335 1.9335937,0 0.6197363,-2.378476 2.1228837,-4.149738 3.8906254,-4.820313 0.856087,-0.328252 0.856087,-1.540907 0,-1.86914 -1.7683468,-0.66802 -3.2688175,-2.434716 -3.8906254,-4.8125 -0.1156157,-0.439291 -0.512464,-0.744077 -0.9667968,-0.744141 z" id="path850" style="opacity:1;fill:#000000;fill-opacity:1;stroke:none;stroke-width:2;stroke-linecap:round;stroke-linejoin:round;stroke-miterlimit:4;stroke-dasharray:none;stroke-dashoffset:0;stroke-opacity:1" transform="scale(0.26458334)"/>
    </g>
</svg>